<!DOCTYPE svg PUBLIC "-//W3C//DTD SVG 20010904//EN" "http://www.w3.org/TR/2001/REC-SVG-20010904/DTD/svg10.dtd">
<svg version="1.0" xmlns="http://www.w3.org/2000/svg" width="40px" height="40px" viewBox="0 0 5120 5120" preserveAspectRatio="xMidYMid meet">
<g id="layer101">
 <path d="M1685 4651 c-309 -123 -549 -276 -774 -495 -436 -425 -678 -971 -698 -1571 -39 -1188 859 -2220 2053 -2360 249 -29 578 -15 806 35 1096 239 1871 1221 1835 2325 -25 743 -404 1420 -1032 1840 -117 78 -362 201 -488 245 -115 39 -166 40 -209 1 l-33 -29 -5 -429 c-5 -362 -8 -434 -22 -469 -27 -70 -55 -118 -97 -172 l-41 -51 48 -6 c608 -86 908 -340 999 -848 25 -142 22 -389 -6 -492 -35 -129 -101 -254 -197 -372 -25 -31 -25 -32 -10 -83 45 -151 41 -309 -10 -473 l-26 -80 -81 6 c-128 9 -297 74 -473 184 l-81 50 -104 -23 c-321 -73 -715 -68 -1018 11 l-56 14 -53 -35 c-168 -111 -369 -193 -498 -201 l-81 -6 -16 40 c-40 100 -51 167 -50 298 0 100 5 146 21 199 l20 69 -47 62 c-98 127 -157 269 -181 430 -16 102 -6 303 21 443 71 370 283 613 637 732 100 33 241 65 340 76 34 3 62 9 62 12 0 2 -16 22 -35 43 -45 50 -74 107 -101 199 l-21 75 -59 24 c-81 33 -235 41 -319 16 -129 -37 -222 -107 -305 -230 -106 -157 -277 -258 -399 -235 -84 15 -77 43 32 124 100 74 179 163 217 243 18 38 48 100 66 139 62 130 197 232 360 270 54 12 99 15 204 10 74 -3 150 -8 168 -12 l32 -6 0 222 0 222 -34 34 c-50 50 -105 47 -261 -15z"/>
 </g>

</svg>