<!DOCTYPE svg PUBLIC "-//W3C//DTD SVG 20010904//EN" "http://www.w3.org/TR/2001/REC-SVG-20010904/DTD/svg10.dtd">
<svg version="1.0" xmlns="http://www.w3.org/2000/svg" width="40px" height="40px" viewBox="0 0 3630 3630" preserveAspectRatio="xMidYMid meet">
<g id="layer101" fill="#ffbc00" stroke="none">
 <path d="M1075 3513 c-588 -63 -1072 -117 -1074 -119 -7 -6 62 -652 70 -666 5 -7 210 11 698 63 380 40 692 71 695 68 2 -2 -32 -349 -77 -771 -44 -422 -78 -771 -74 -775 4 -4 353 30 774 75 422 44 770 79 772 76 3 -2 -28 -315 -69 -695 -42 -398 -69 -694 -64 -698 10 -9 661 -77 668 -70 6 6 241 2228 235 2233 -2 2 -350 -32 -771 -77 -422 -44 -771 -78 -775 -74 -5 6 138 1418 154 1515 l5 32 -48 -1 c-27 -1 -530 -53 -1119 -116z"/>
 </g>

</svg>