<svg width="0" height="0" class="hidden">
  <symbol version="1.0" xmlns="http://www.w3.org/2000/svg" preserveAspectRatio="xMidYMid meet" viewBox="0 0 5120 5120" id="github">
    <g id="github">
      <path d="M1685 4651 c-309 -123 -549 -276 -774 -495 -436 -425 -678 -971 -698 -1571 -39 -1188 859 -2220 2053 -2360 249 -29 578 -15 806 35 1096 239 1871 1221 1835 2325 -25 743 -404 1420 -1032 1840 -117 78 -362 201 -488 245 -115 39 -166 40 -209 1 l-33 -29 -5 -429 c-5 -362 -8 -434 -22 -469 -27 -70 -55 -118 -97 -172 l-41 -51 48 -6 c608 -86 908 -340 999 -848 25 -142 22 -389 -6 -492 -35 -129 -101 -254 -197 -372 -25 -31 -25 -32 -10 -83 45 -151 41 -309 -10 -473 l-26 -80 -81 6 c-128 9 -297 74 -473 184 l-81 50 -104 -23 c-321 -73 -715 -68 -1018 11 l-56 14 -53 -35 c-168 -111 -369 -193 -498 -201 l-81 -6 -16 40 c-40 100 -51 167 -50 298 0 100 5 146 21 199 l20 69 -47 62 c-98 127 -157 269 -181 430 -16 102 -6 303 21 443 71 370 283 613 637 732 100 33 241 65 340 76 34 3 62 9 62 12 0 2 -16 22 -35 43 -45 50 -74 107 -101 199 l-21 75 -59 24 c-81 33 -235 41 -319 16 -129 -37 -222 -107 -305 -230 -106 -157 -277 -258 -399 -235 -84 15 -77 43 32 124 100 74 179 163 217 243 18 38 48 100 66 139 62 130 197 232 360 270 54 12 99 15 204 10 74 -3 150 -8 168 -12 l32 -6 0 222 0 222 -34 34 c-50 50 -105 47 -261 -15z"></path>
    </g>
  </symbol>
  <symbol version="1.0" xmlns="http://www.w3.org/2000/svg" preserveAspectRatio="xMidYMid meet" viewBox="0 0 2000 2000" id="instagram">
    <g id="instagram" stroke="none">
      <path d="M670 1761 c-257 -20 -393 -141 -431 -381 -7 -44 -9 -204 -7 -432 3 -348 5 -366 26 -427 51 -141 141 -225 287 -269 39 -11 128 -16 393 -19 368 -5 471 2 569 39 69 27 158 107 196 177 51 93 58 160 58 551 0 195 -5 378 -10 405 -37 191 -146 303 -331 345 -65 14 -607 22 -750 11z m673 -150 c135 -18 217 -81 253 -195 21 -66 32 -569 16 -726 -13 -119 -28 -163 -74 -215 -77 -88 -133 -97 -578 -93 -307 3 -361 6 -401 21 -66 25 -114 70 -146 135 -27 55 -28 63 -33 259 -3 112 -3 292 0 400 5 179 8 203 29 250 42 95 115 146 235 163 72 11 618 11 699 1z"></path>
      <path d="M846 1366 c-111 -47 -190 -133 -227 -248 -92 -287 162 -569 456 -508 124 26 226 105 282 217 26 53 28 67 28 168 0 98 -3 116 -27 167 -37 80 -107 152 -187 191 -59 29 -76 32 -166 35 -88 2 -107 -1 -159 -22z m220 -131 c140 -41 214 -198 159 -333 -21 -52 -100 -124 -153 -140 -89 -27 -193 0 -254 64 -103 110 -86 290 36 372 79 53 130 62 212 37z"></path>
      <path d="M1358 674 c-34 -18 -48 -43 -48 -84 0 -45 16 -70 57 -86 66 -28 133 14 133 84 0 46 -16 71 -55 88 -42 17 -53 17 -87 -2z"></path>
    </g>
  </symbol>
  <symbol version="1.0" xmlns="http://www.w3.org/2000/svg" preserveAspectRatio="xMidYMid meet" viewBox="0 0 2000 2000" id="telegram">
    <g id="layer101" stroke="telegram">
      <path d="M1374 1657 c-27 -18 -120 -86 -207 -150 l-157 -117 -109 105 c-96 92 -114 105 -144 105 -20 0 -40 -7 -48 -17 -8 -9 -48 -120 -89 -247 l-76 -230 -193 -61 c-148 -46 -197 -65 -208 -82 -19 -29 -10 -68 20 -87 37 -24 1534 -586 1560 -586 34 0 57 30 57 74 0 38 -231 1202 -251 1263 -22 69 -81 81 -155 30z m-599 -408 l6 -56 350 -314 c315 -282 397 -365 327 -328 -32 17 -821 510 -832 520 -6 5 16 89 55 211 l64 203 11 -90 c7 -50 15 -115 19 -146z"></path>
    </g>
  </symbol>
  <symbol version="1.0" xmlns="http://www.w3.org/2000/svg" preserveAspectRatio="xMidYMid meet" viewBox="0 0 2000 2000" id="vk">
    <g id="vk">
      <path d="M1530 1570 c-29 -13 -83 -60 -150 -130 -81 -84 -112 -110 -131 -110 -46 0 -71 50 -83 159 -9 86 -18 91 -160 91 -144 0 -209 -14 -321 -70 -87 -43 -176 -114 -250 -200 -88 -103 -224 -321 -325 -521 -103 -205 -116 -249 -81 -269 21 -11 338 -14 365 -4 9 3 45 65 80 138 72 149 173 305 216 336 42 30 65 15 79 -50 13 -61 14 -240 2 -293 -11 -47 -44 -84 -82 -92 -35 -8 -37 -24 -6 -53 35 -33 113 -45 271 -40 219 5 221 8 211 268 -10 235 6 291 70 262 48 -22 173 -215 240 -368 53 -123 33 -114 266 -114 119 0 208 4 220 10 25 14 25 61 0 117 -21 46 -106 176 -157 238 -79 99 -144 199 -144 222 0 19 32 59 129 157 135 137 191 213 191 255 -1 60 -27 69 -231 76 -163 6 -177 5 -219 -15z"></path>
    </g>
  </symbol>
   <symbol version="1.0" xmlns="http://www.w3.org/2000/svg" preserveAspectRatio="xMidYMid meet" viewBox="0 0 3630 3630" id="logo">
    <g id="logo">
      <path d="M1075 3513 c-588 -63 -1072 -117 -1074 -119 -7 -6 62 -652 70 -666 5 -7 210 11 698 63 380 40 692 71 695 68 2 -2 -32 -349 -77 -771 -44 -422 -78 -771 -74 -775 4 -4 353 30 774 75 422 44 770 79 772 76 3 -2 -28 -315 -69 -695 -42 -398 -69 -694 -64 -698 10 -9 661 -77 668 -70 6 6 241 2228 235 2233 -2 2 -350 -32 -771 -77 -422 -44 -771 -78 -775 -74 -5 6 138 1418 154 1515 l5 32 -48 -1 c-27 -1 -530 -53 -1119 -116z"></path>
    </g>
  </symbol>
</svg>
